<svg xmlns="http://www.w3.org/2000/svg" viewBox="0 0 400 400" fill="none" shape-rendering="auto" width="512" height="512"><metadata xmlns:rdf="http://www.w3.org/1999/02/22-rdf-syntax-ns#" xmlns:xsi="http://www.w3.org/2001/XMLSchema-instance" xmlns:dc="http://purl.org/dc/elements/1.1/" xmlns:dcterms="http://purl.org/dc/terms/"><rdf:RDF><rdf:Description><dc:title>Adventurer Neutral</dc:title><dc:creator>Lisa Wischofsky</dc:creator><dc:source xsi:type="dcterms:URI">https://www.figma.com/community/file/1184595184137881796</dc:source><dcterms:license xsi:type="dcterms:URI">https://creativecommons.org/licenses/by/4.0/</dcterms:license><dc:rights>Remix of „Adventurer Neutral” (https://www.figma.com/community/file/1184595184137881796) by „Lisa Wischofsky”, licensed under „CC BY 4.0” (https://creativecommons.org/licenses/by/4.0/)</dc:rights></rdf:Description></rdf:RDF></metadata><mask id="viewboxMask"><rect width="400" height="400" rx="0" ry="0" x="0" y="0" fill="#fff" /></mask><g mask="url(#viewboxMask)"><rect fill="#763900" width="400" height="400" x="0" y="0" /><g transform="translate(-279 -322)"><path d="M550.3 424.38c22.91-2.4 46.2 8 59.5 26.8A65.77 65.77 0 0 1 622.16 491c-.45 10.96-3.32 21.75-8.93 31.21-8.53 14.65-23.03 25.87-39.46 30.13a65.5 65.5 0 0 1-41.5-2.57 65.32 65.32 0 0 1-32.38-28.67c-7.4-12.95-9.7-28.21-7.34-42.87a64.87 64.87 0 0 1 17.9-34.8 65.14 65.14 0 0 1 39.86-19.06Z" fill="#000"/><path d="M549.26 430.26a59.65 59.65 0 0 1 42.62 10.89c15.43 11.05 25 29.84 24.48 48.85.05 22.7-14.12 44.35-34.86 53.52-10.79 4.85-22.8 6.65-34.5 4.52a59.62 59.62 0 0 1-40.35-26.67 61.5 61.5 0 0 1-9.37-29.32 60.42 60.42 0 0 1 13.41-40.36 59.52 59.52 0 0 1 38.57-21.43Z" fill="#fff"/><path d="M381.24 447.1a54.92 54.92 0 0 1 59.96 45.86c1.17 8.18.85 16.9-1.66 24.82A54.86 54.86 0 0 1 380 556.3c-15.8-1.8-30.35-11-39.02-24.28-5.54-8.32-8.46-18.03-9.11-27.97-.3-12.31 3.26-24.64 10.57-34.6a55.1 55.1 0 0 1 38.8-22.35Z" fill="#000"/><path d="M376.5 453.67c18.86-4.33 39.25 3.64 50.42 19.36 7.92 11.03 11.42 25.76 8.17 39.05a48.81 48.81 0 0 1-14.45 25.58 49.5 49.5 0 0 1-29.64 13.28c-19.88 1.83-39.68-9.53-48.32-27.5a49.23 49.23 0 0 1 33.81-69.78Z" fill="#fff"/><path d="M576.41 464.4a24.73 24.73 0 0 1 17.67 1.5c9.98 4.69 16.69 17.38 12.92 28.13a24.34 24.34 0 0 1-17.18 17.45c-6.55 1.67-13.68.8-19.44-2.84-8.89-5.5-13.54-16.73-10.71-26.86a24.59 24.59 0 0 1 16.74-17.38ZM408.46 478.49c12.74-1.61 25.04 8.55 25.32 21.5 1.08 12.37-9.26 24.21-21.78 24.28-12.48.61-23.88-9.65-23.87-22.26-.7-11.8 8.69-22.33 20.33-23.52Z" fill="#000"/></g><g transform="translate(-279 -322)"><path d="M582.3 370.69c14.06 7.04 27.75 17.35 36.57 30.53a2.98 2.98 0 0 1-4.23 4.15 100.16 100.16 0 0 0-34.46-13.42c-35.66-6.86-74.47 5.14-98.23 33.03-1.67 2.05-4.03 3.59-6.28 1.25-1.68-2.6-2.27-6.05-3.3-8.95-1.92 4.71-3.86 9.5-6.2 14.02-1.56 3.23-6 1.12-7.04-1.42-3.06-6.88-6.2-13.74-9.02-20.73 0 5.63 0 11.25.04 16.88-.19 2.06.27 4.35-2.1 5.22a5.55 5.55 0 0 1-5.31-2.91c-3.26-5.88-6.24-11.93-9.5-17.82.97 5.5 2.61 11 3.11 16.55.12 1.94-2.28 3.44-4.02 2.36-18.54-7.4-38.31-11.5-58.33-10.1-12.5.93-26.14 4.64-36 12.69-3.09 2.34-5.2 5.5-7.97 8.15-1.65.72-3.27-.24-4.88-.65.08-1.9.11-3.75.73-5.58 6.86-20.67 20.43-39.8 39.98-50.1 13.56-7.32 30.17-9.03 44.62-3.35 11.89 4.55 20.95 13.32 27.67 23.95 2.31-2.84 4.25-6.03 6.75-8.7 1.62-1.57 4.62-1.56 5.63.7 2.52 5.16 4.68 10.52 6.98 15.8 1.5-7.43 3.06-14.82 4.43-22.25.33-1.5.6-3.23 1.58-4.45 1.65-1.25 2.9-.28 4.65.1l.8 2.56c2.08-4.75 4.75-9.11 8.44-12.78 9.1-9.43 21.82-14.25 34.5-16.48 23.85-3.69 48.86 1.12 70.39 11.75Z" fill="#000"/></g><g transform="translate(-279 -322)"><path d="M579.99 568.69c2.42 1 1.92 3.4 1.38 5.45-6.78 13.35-16.08 25.18-28.35 33.9-17.2 12.5-38.88 18.4-60.02 17.58-26.81-.96-53.07-12.04-73.44-29.31-.4-2.42-.5-3.7 1.45-5.42 51.83-7.13 106.78-15.03 158.98-22.2Z" fill="#000"/><path d="M573.86 575.51a83.4 83.4 0 0 1-36.37 35 89.24 89.24 0 0 1-40.5 9.18c-24.7.18-49-9.01-68.57-23.87 47.93-6.6 97.73-13.8 145.44-20.31Z" fill="#8F2E45"/></g><g transform="translate(-279 -322)"><path fill-rule="evenodd" clip-rule="evenodd" d="M589 446.02c12.76.73 25.74 1.84 37.38 7.57 1.16.52 2.25 1.22 3.34 1.9 1.38.9 2.77 1.77 4.29 2.3 2.3.37 4.64.44 7 .52 2.67.09 5.35.18 7.95.7 2.16.77 2.3 2.83 2.42 4.8v1c-.02 2.19-.04 4.24-2.33 5.37-2.21.25-4.46.24-6.7.23h-3.17c1.26 18.16-2.42 36.45-11.5 52.28-9.66 17.1-25.26 30.69-43.86 37.2a78.74 78.74 0 0 1-34.82 4 81.36 81.36 0 0 1-42.57-18.29 88.7 88.7 0 0 1-28.74-44.53c-.9-2.9-1.46-5.9-2.02-8.9-.6-3.25-1.2-6.5-2.24-9.6-1.98-5.44-10.5-8.81-14.51-3.67-3.27 3.72-3.25 8.08-3.22 12.6.01 1.16.02 2.33-.03 3.5-.81 27.02-17.12 53.14-41.27 65.38-14.13 7.32-30.77 9.4-46.2 5.33a62.04 62.04 0 0 1-30.72-19.2c-10.8-12.26-16.55-28.93-16.8-45.17-.5-.12-1-.18-1.48-.24-1.41-.17-2.72-.33-3.35-1.96l-.07-.46c-.32-2.13-.83-5.46 1.42-6.47 1-.5 2.03-.92 3.05-1.33 2.19-.89 4.33-1.76 6.2-3.46 10.62-9.27 24.1-13.95 37.58-17.36a151.97 151.97 0 0 1 68.93-.89c5.82 1.39 12.08 1.59 17.77-.43 7.08-2.38 14.84-3.5 22.28-2.54 5.8.56 11.89.35 17.36-1.87 12.15-4.65 23.96-9.15 36.6-12.3a201.86 201.86 0 0 1 62.03-6Zm-25 12.94c17.65-.96 36.07-.78 53.28 3.73 7.14 1.68 13.37 8.09 14.26 15.47 1.3 7.9.28 15.57-1.36 23.32a80.57 80.57 0 0 1-24.67 39.05c-10.5 9.05-23.72 15.36-37.5 17.2-14.95 2.3-30.74-.6-44.13-7.61-14-7.22-25.74-19.05-33.2-32.89-5.27-10.71-8.3-23.62-6.34-35.5a98.03 98.03 0 0 1 20.17-10.3c18.9-7.2 39.37-10.89 59.48-12.47Zm-134.78 19.81a139.53 139.53 0 0 0-34.7-1.92c-15.93 1.2-31.36 3.69-46.39 9.31-5.22 2.04-10.6 4.52-15.04 7.97-4.12 2.85-5.47 9.18-5.69 13.85.33 8.92 3.64 17.87 8.04 25.57 7.92 13.73 21.5 23.9 37.06 27.1 9.84 2.21 19.97 1.39 29.56-1.56 26.32-8.35 46.38-34.3 46.64-62.1a46.96 46.96 0 0 0-1.45-10c-.29-1.64-1.75-2.49-3.1-3.26l-.58-.34c-4.48-2.24-9.46-3.65-14.35-4.63Z" fill="#000"/></g></g></svg>